<svg width="670" height="430" viewBox="0 0 670 430" fill="none" xmlns="http://www.w3.org/2000/svg">
<g clip-path="url(#clip0)">
<path d="M670 0.261642H208.583V295.85H670V0.261642Z" fill="#E6E6E6"/>
<path d="M656.806 37.3359H221.778V278.363H656.806V37.3359Z" fill="white"/>
<path d="M669.803 0H208.386V19.6078H669.803V0Z" fill="#415A77"/>
<path d="M222.954 13.6587C224.96 13.6587 226.587 12.0316 226.587 10.0245C226.587 8.01745 224.96 6.39038 222.954 6.39038C220.947 6.39038 219.32 8.01745 219.32 10.0245C219.32 12.0316 220.947 13.6587 222.954 13.6587Z" fill="white"/>
<path d="M236.744 13.6587C238.751 13.6587 240.378 12.0316 240.378 10.0245C240.378 8.01745 238.751 6.39038 236.744 6.39038C234.738 6.39038 233.111 8.01745 233.111 10.0245C233.111 12.0316 234.738 13.6587 236.744 13.6587Z" fill="white"/>
<path d="M250.535 13.6587C252.542 13.6587 254.168 12.0316 254.168 10.0245C254.168 8.01745 252.542 6.39038 250.535 6.39038C248.528 6.39038 246.902 8.01745 246.902 10.0245C246.902 12.0316 248.528 13.6587 250.535 13.6587Z" fill="white"/>
<path d="M533.712 59.9112H392.081C391.779 59.8714 391.501 59.7229 391.3 59.4936C391.099 59.2642 390.988 58.9696 390.988 58.6646C390.988 58.3595 391.099 58.0649 391.3 57.8356C391.501 57.6062 391.779 57.4578 392.081 57.4179H533.712C534.015 57.4578 534.292 57.6062 534.493 57.8356C534.694 58.0649 534.805 58.3595 534.805 58.6646C534.805 58.9696 534.694 59.2642 534.493 59.4936C534.292 59.7229 534.015 59.8714 533.712 59.9112Z" fill="#CCCCCC"/>
<path d="M435.576 73.6242H345.527C345.224 73.5843 344.947 73.4359 344.746 73.2065C344.545 72.9772 344.434 72.6825 344.434 72.3775C344.434 72.0725 344.545 71.7779 344.746 71.5485C344.947 71.3192 345.224 71.1708 345.527 71.1309H435.576C435.878 71.1708 436.156 71.3192 436.357 71.5485C436.558 71.7779 436.669 72.0725 436.669 72.3775C436.669 72.6825 436.558 72.9772 436.357 73.2065C436.156 73.4359 435.878 73.5843 435.576 73.6242Z" fill="#CCCCCC"/>
<path d="M533.712 73.8735H443.663C443.361 73.8337 443.083 73.6852 442.882 73.4559C442.681 73.2265 442.57 72.9319 442.57 72.6269C442.57 72.3219 442.681 72.0272 442.882 71.7979C443.083 71.5685 443.361 71.4201 443.663 71.3802H533.712C534.015 71.4201 534.292 71.5685 534.493 71.7979C534.694 72.0272 534.805 72.3219 534.805 72.6269C534.805 72.9319 534.694 73.2265 534.493 73.4559C534.292 73.6852 534.015 73.8337 533.712 73.8735H533.712Z" fill="#CCCCCC"/>
<path d="M435.795 87.3371H345.745C345.443 87.2973 345.165 87.1489 344.964 86.9195C344.763 86.6902 344.652 86.3955 344.652 86.0905C344.652 85.7855 344.763 85.4909 344.964 85.2615C345.165 85.0322 345.443 84.8837 345.745 84.8439H435.795C436.097 84.8837 436.375 85.0322 436.576 85.2615C436.777 85.4909 436.887 85.7855 436.887 86.0905C436.887 86.3955 436.777 86.6902 436.576 86.9195C436.375 87.1489 436.097 87.2973 435.795 87.3371Z" fill="#CCCCCC"/>
<path d="M436.013 101.05H345.964C345.662 101.01 345.384 100.862 345.183 100.632C344.982 100.403 344.871 100.109 344.871 99.8035C344.871 99.4984 344.982 99.2038 345.183 98.9745C345.384 98.7451 345.662 98.5967 345.964 98.5568H436.013C436.316 98.5967 436.593 98.7451 436.794 98.9745C436.995 99.2038 437.106 99.4984 437.106 99.8035C437.106 100.109 436.995 100.403 436.794 100.632C436.593 100.862 436.316 101.01 436.013 101.05Z" fill="#CCCCCC"/>
<path d="M476.885 87.3371H451.094C450.792 87.2973 450.514 87.1489 450.313 86.9195C450.112 86.6902 450.001 86.3955 450.001 86.0905C450.001 85.7855 450.112 85.4909 450.313 85.2615C450.514 85.0322 450.792 84.8837 451.094 84.8439H476.885C477.187 84.8837 477.465 85.0322 477.666 85.2615C477.867 85.4909 477.978 85.7855 477.978 86.0905C477.978 86.3955 477.867 86.6902 477.666 86.9195C477.465 87.1489 477.187 87.2973 476.885 87.3371Z" fill="#CCCCCC"/>
<path d="M476.885 100.801H451.094C450.792 100.761 450.514 100.612 450.313 100.383C450.112 100.154 450.001 99.8592 450.001 99.5542C450.001 99.2491 450.112 98.9545 450.313 98.7252C450.514 98.4958 450.792 98.3474 451.094 98.3075H476.885C477.187 98.3474 477.465 98.4958 477.666 98.7252C477.867 98.9545 477.978 99.2491 477.978 99.5542C477.978 99.8592 477.867 100.154 477.666 100.383C477.465 100.612 477.187 100.761 476.885 100.801Z" fill="#CCCCCC"/>
<path d="M520.161 100.801H494.37C494.068 100.761 493.791 100.612 493.59 100.383C493.389 100.154 493.278 99.8592 493.278 99.5542C493.278 99.2491 493.389 98.9545 493.59 98.7252C493.791 98.4958 494.068 98.3474 494.37 98.3075H520.161C520.464 98.3474 520.741 98.4958 520.942 98.7252C521.143 98.9545 521.254 99.2491 521.254 99.5542C521.254 99.8592 521.143 100.154 520.942 100.383C520.741 100.612 520.464 100.761 520.161 100.801Z" fill="#CCCCCC"/>
<path d="M370.662 59.9112H344.871C344.569 59.8714 344.291 59.7229 344.09 59.4936C343.889 59.2642 343.778 58.9696 343.778 58.6646C343.778 58.3595 343.889 58.0649 344.09 57.8356C344.291 57.6062 344.569 57.4578 344.871 57.4179H370.662C370.964 57.4578 371.242 57.6062 371.443 57.8356C371.644 58.0649 371.755 58.3595 371.755 58.6646C371.755 58.9696 371.644 59.2642 371.443 59.4936C371.242 59.7229 370.964 59.8714 370.662 59.9112Z" fill="#CCCCCC"/>
<path d="M435.248 217.142H345.199C344.897 217.103 344.619 216.954 344.418 216.725C344.217 216.495 344.106 216.201 344.106 215.896C344.106 215.591 344.217 215.296 344.418 215.067C344.619 214.837 344.897 214.689 345.199 214.649H435.248C435.551 214.689 435.828 214.837 436.029 215.067C436.23 215.296 436.341 215.591 436.341 215.896C436.341 216.201 436.23 216.495 436.029 216.725C435.828 216.954 435.551 217.103 435.248 217.142H435.248Z" fill="#CCCCCC"/>
<path d="M434.811 244.568H344.762C344.459 244.529 344.182 244.38 343.981 244.151C343.78 243.921 343.669 243.627 343.669 243.322C343.669 243.017 343.78 242.722 343.981 242.493C344.182 242.263 344.459 242.115 344.762 242.075H434.811C435.114 242.115 435.391 242.263 435.592 242.493C435.793 242.722 435.904 243.017 435.904 243.322C435.904 243.627 435.793 243.921 435.592 244.151C435.391 244.38 435.114 244.529 434.811 244.568H434.811Z" fill="#CCCCCC"/>
<path d="M435.03 258.281H344.98C344.678 258.241 344.4 258.093 344.199 257.864C343.998 257.634 343.887 257.34 343.887 257.035C343.887 256.73 343.998 256.435 344.199 256.206C344.4 255.976 344.678 255.828 344.98 255.788H435.03C435.332 255.828 435.61 255.976 435.811 256.206C436.012 256.435 436.123 256.73 436.123 257.035C436.123 257.34 436.012 257.634 435.811 257.864C435.61 258.093 435.332 258.241 435.03 258.281H435.03Z" fill="#CCCCCC"/>
<path d="M473.497 244.818H447.707C447.404 244.778 447.127 244.629 446.926 244.4C446.725 244.171 446.614 243.876 446.614 243.571C446.614 243.266 446.725 242.971 446.926 242.742C447.127 242.513 447.404 242.364 447.707 242.324H473.497C473.8 242.364 474.077 242.513 474.278 242.742C474.479 242.971 474.59 243.266 474.59 243.571C474.59 243.876 474.479 244.171 474.278 244.4C474.077 244.629 473.8 244.778 473.497 244.818Z" fill="#CCCCCC"/>
<path d="M473.497 258.281H447.707C447.404 258.241 447.127 258.093 446.926 257.864C446.725 257.634 446.614 257.34 446.614 257.035C446.614 256.73 446.725 256.435 446.926 256.206C447.127 255.976 447.404 255.828 447.707 255.788H473.497C473.8 255.828 474.077 255.976 474.278 256.206C474.479 256.435 474.59 256.73 474.59 257.035C474.59 257.34 474.479 257.634 474.278 257.864C474.077 258.093 473.8 258.241 473.497 258.281Z" fill="#CCCCCC"/>
<path d="M516.774 244.818H490.983C490.68 244.778 490.403 244.629 490.202 244.4C490.001 244.171 489.89 243.876 489.89 243.571C489.89 243.266 490.001 242.971 490.202 242.742C490.403 242.513 490.68 242.364 490.983 242.324H516.774C517.076 242.364 517.353 242.513 517.554 242.742C517.756 242.971 517.866 243.266 517.866 243.571C517.866 243.876 517.756 244.171 517.554 244.4C517.353 244.629 517.076 244.778 516.774 244.818Z" fill="#CCCCCC"/>
<path d="M533.822 230.855H392.191C391.888 230.816 391.611 230.667 391.41 230.438C391.209 230.208 391.098 229.914 391.098 229.609C391.098 229.304 391.209 229.009 391.41 228.78C391.611 228.55 391.888 228.402 392.191 228.362H533.822C534.124 228.402 534.402 228.55 534.603 228.78C534.804 229.009 534.915 229.304 534.915 229.609C534.915 229.914 534.804 230.208 534.603 230.438C534.402 230.667 534.124 230.816 533.822 230.855Z" fill="#CCCCCC"/>
<path d="M370.771 230.855H344.98C344.678 230.816 344.4 230.667 344.199 230.438C343.998 230.208 343.888 229.914 343.888 229.609C343.888 229.304 343.998 229.009 344.199 228.78C344.4 228.55 344.678 228.402 344.98 228.362H370.771C371.073 228.402 371.351 228.55 371.552 228.78C371.753 229.009 371.864 229.304 371.864 229.609C371.864 229.914 371.753 230.208 371.552 230.438C371.351 230.667 371.073 230.816 370.771 230.855Z" fill="#CCCCCC"/>
<path d="M413.501 123.201L378.53 157.744L413.501 192.286L421.37 184.416L394.923 157.962L421.588 131.29L413.501 123.201Z" fill="#E6E6E6"/>
<path d="M465.083 123.201L500.053 157.744L465.083 192.286L457.214 184.416L483.661 157.962L456.996 131.29L465.083 123.201Z" fill="#E6E6E6"/>
<path d="M413.501 123.201L378.53 157.744L413.501 192.286L421.37 184.416L394.923 157.962L421.588 131.29L413.501 123.201Z" fill="#415A77"/>
<path d="M465.083 123.201L500.053 157.744L465.083 192.286L457.214 184.416L483.661 157.962L456.996 131.29L465.083 123.201Z" fill="#415A77"/>
<path d="M355.123 412.153C366.004 426.729 388.591 428.263 388.591 428.263C388.591 428.263 393.537 406.165 382.656 391.589C371.774 377.012 349.187 375.478 349.187 375.478C349.187 375.478 344.242 397.577 355.123 412.153Z" fill="#E6E6E6"/>
<path d="M410.554 417.632C403.374 427.251 388.469 428.263 388.469 428.263C388.469 428.263 385.206 413.681 392.386 404.063C399.566 394.444 414.471 393.432 414.471 393.432C414.471 393.432 417.734 408.014 410.554 417.632Z" fill="#E6E6E6"/>
<path d="M113.06 347.963V385.798H102.252L95.048 346.161L113.06 347.963Z" fill="#FFCECE"/>
<path d="M27.5019 347.963V385.798H16.6951L9.49001 346.161L27.5019 347.963Z" fill="#FFCECE"/>
<path d="M84.5148 69.0517C84.5148 69.0517 67.1482 56.5661 64.9774 62.5375C62.8065 68.5088 78.0024 79.3658 78.0024 79.3658L84.5148 69.0517Z" fill="#FFCECE"/>
<path d="M22.9175 85.0658C22.9175 106.652 32.2089 107.323 47.3452 107.323C62.4816 107.323 77.731 106.652 77.731 85.0658C77.731 63.4796 65.4606 45.9806 50.3242 45.9806C35.1879 45.9806 22.9175 63.4796 22.9175 85.0658Z" fill="#FFFA86"/>
<path d="M60.093 84.7944C60.093 84.7944 57.9222 101.08 68.2336 102.166C78.5451 103.251 34.5857 106.508 34.5857 106.508C34.5857 106.508 45.9826 96.1942 40.0128 88.0514C34.043 79.9087 60.093 84.7944 60.093 84.7944Z" fill="#FFCECE"/>
<path d="M114.907 375.762L118.705 407.79C118.705 407.79 137.7 431.133 125.761 429.504C113.821 427.875 106.223 429.85 106.223 427.679C106.223 425.508 105.942 417.749 104.314 417.749C102.686 417.749 101.339 430 101.339 430C101.339 430 96.4544 429.63 95.9117 429.088C95.369 428.545 94.8263 397.476 94.8263 397.476C94.8263 397.476 93.1982 388.247 96.4544 383.905C99.7107 379.562 99.168 375.762 99.168 375.762L114.907 375.762Z" fill="black"/>
<path d="M28.4481 375.41L32.2471 407.438C32.2471 407.438 51.2419 430.78 39.3023 429.152C27.3627 427.523 19.7648 429.498 19.7648 427.327C19.7648 425.155 19.4841 417.397 17.8559 417.397C16.2278 417.397 14.8804 429.648 14.8804 429.648C14.8804 429.648 9.99604 429.278 9.45333 428.735C8.91062 428.192 8.36792 397.124 8.36792 397.124C8.36792 397.124 6.7398 387.895 9.99604 383.552C13.2523 379.21 12.7096 375.41 12.7096 375.41H28.4481Z" fill="black"/>
<path d="M86.6857 185.222C86.6857 185.222 104.052 234.621 105.138 245.478C106.223 256.335 104.052 293.249 104.052 293.249C104.052 293.249 119.791 357.029 116.535 357.572C113.278 358.115 95.1447 360.688 94.602 357.974C94.0593 355.26 92.1245 351.058 92.6672 349.429C93.2098 347.801 91.039 341.829 91.039 338.572C91.039 335.315 83.4294 318.22 83.9721 315.506C84.5148 312.791 74.746 272.62 73.1179 269.363C71.4898 266.106 67.1481 243.307 67.1481 243.307C67.1481 243.307 42.7263 310.077 42.1836 311.706C41.6409 313.334 39.47 316.048 40.5554 316.591C41.6408 317.134 38.9273 320.934 38.9273 320.934C38.9273 320.934 33.3037 343.458 33.3037 344.544C33.3037 345.629 34.3891 357.918 32.2183 358.461C30.0475 359.004 7.87342 358.969 6.788 355.169C5.70258 351.369 18.3044 307.363 18.3044 307.363C18.3044 307.363 27.5304 279.678 24.8169 272.62C22.1034 265.563 27.5304 223.221 29.7013 219.964C31.8721 216.707 32.4148 197.164 32.4148 197.164L86.6857 185.222Z" fill="black"/>
<path d="M50.5956 93.7514C60.1869 93.7514 67.9623 85.974 67.9623 76.3802C67.9623 66.7863 60.1869 59.009 50.5956 59.009C41.0043 59.009 33.2289 66.7863 33.2289 76.3802C33.2289 85.974 41.0043 93.7514 50.5956 93.7514Z" fill="#FFCECE"/>
<path d="M60.093 98.3656C60.093 98.3656 40.5555 98.9085 39.4701 97.2799C38.3847 95.6514 11.2493 101.08 11.2493 111.937C11.2493 122.794 26.9878 165.136 26.9878 165.136C26.9878 165.136 32.9576 195.536 31.3295 198.793C29.7013 202.05 91.5701 191.736 89.9419 186.307C88.3138 180.879 79.0878 168.936 91.0273 158.622C102.967 148.308 107.851 137.451 107.851 137.451L93.7409 99.9941C93.7409 99.9941 79.6305 97.8227 76.3742 99.9941C73.118 102.166 60.093 98.3656 60.093 98.3656Z" fill="#DE0000"/>
<path d="M104.052 140.165L107.851 137.451C107.851 137.451 143.127 100.537 133.901 93.4799C124.675 86.4229 111.108 79.9087 104.595 79.3658C98.0826 78.823 92.6555 73.9374 92.6555 73.9374C92.6555 73.9374 85.6003 61.4518 80.1732 69.5946C74.7461 77.7373 68.7763 80.4515 76.3742 83.1658C83.9721 85.88 88.8565 84.7944 92.6555 87.5086C96.4545 90.2229 111.108 94.5657 104.595 96.1942C100.861 97.0997 97.2248 98.3725 93.7409 99.9941L86.6857 112.48L104.052 140.165Z" fill="#DE0000"/>
<path d="M42.7263 231.907C42.7263 231.907 56.8367 252.535 46.5253 251.449C36.2138 250.364 31.3295 236.249 31.3295 236.249L42.7263 231.907Z" fill="#FFCECE"/>
<path d="M15.0482 109.223L11.2492 111.937C11.2492 111.937 -1.23304 180.336 11.2492 198.25C23.7315 216.164 24.817 215.078 24.817 215.078C24.817 215.078 26.9878 213.45 28.0732 224.307C29.1586 235.164 27.5305 239.507 30.7867 239.507C34.043 239.507 48.6961 236.249 47.6107 233.535C46.5253 230.821 39.4701 215.078 38.9274 211.278C38.3847 207.478 35.6711 198.793 34.5857 193.907C33.5003 189.022 39.4701 186.307 36.7565 175.993C34.043 165.679 30.244 147.222 30.244 143.422C30.244 139.622 15.0482 109.223 15.0482 109.223Z" fill="#DE0000"/>
<path d="M33.7716 60.909C33.7716 66.7552 41.7899 71.4945 51.681 71.4945C61.5721 71.4945 70.6758 74.6265 70.6758 68.7803C70.6758 62.934 61.5721 50.3234 51.681 50.3234C41.7899 50.3234 33.7716 55.0627 33.7716 60.909Z" fill="#FFFA86"/>
<path d="M77.5684 88.7294C77.5684 88.7294 78.2994 108.408 58.7491 107.323C39.1988 106.237 61.3911 90.5014 61.3911 90.5014L77.5684 88.7294Z" fill="#FFFA86"/>
<path d="M530.421 428.263H0V429.954H530.421V428.263Z" fill="#1D1D1E"/>
</g>
<defs>
<clipPath id="clip0">
<rect width="670" height="430" fill="white"/>
</clipPath>
</defs>
</svg>
